<?xml version="1.0" encoding="utf-8"?>
<!-- Generator: Adobe Illustrator 23.0.1, SVG Export Plug-In . SVG Version: 6.00 Build 0)  -->
<svg version="1.1" id="Layer_1" xmlns="http://www.w3.org/2000/svg" xmlns:xlink="http://www.w3.org/1999/xlink" x="0px" y="0px"
	 viewBox="0 0 512 512" style="enable-background:new 0 0 512 512;" xml:space="preserve">
<style type="text/css">
	.st0{fill:#D87459;}
	.st1{fill-rule:evenodd;clip-rule:evenodd;fill:#843D1C;}
	.st2{fill:#564E43;}
	.st3{fill:#DCC5A1;}
	.st4{fill:#EDD9B4;}
	.st5{fill:#BC9F82;}
	.st6{fill:#D43329;}
	.st7{fill:#CA3029;}
	.st8{fill:#A82623;}
	.st9{fill:#342214;}
	.st10{fill:#C93938;}
	.st11{fill:#BE1E2D;}
</style>
<g>
	<path class="st0" d="M216.8,319.7v20h78.4v-20c23.3,32.5,72.9,38.6,112.5,47.5c2,0.4,3.9,1,5.7,1.6c17.9-28.6,28.2-62.2,28.2-98.3
		c0-102.5-83.1-185.6-185.5-185.6S70.5,167.9,70.5,270.5c0,36.1,10.3,69.8,28.2,98.3c1.8-0.7,3.7-1.2,5.7-1.6
		C143.9,358.3,193.6,352.2,216.8,319.7z"/>
	<path class="st1" d="M211.1,67.2c14.7-13.7,93.6-24.2,125.2,27.4s14.7,38.9,32.6,71.6c17.9,32.6,17.9,36.8,1,60
		c-16.9,23.1-34.7,41-20,56.8s21.1,24.2,6.3,46.3c-14.7,22.1,35.8,47.3,15.7,74.7c-20,27.4-198.8,35.8-210.4,4.2
		c-11.6-31.6,7.4-53.7-4.2-69.4c-11.6-15.8-29.4-31.6,0-53.7c17-12.8-7.7-24.9-19.5-47.1c-13.5-25.2-5-56.8,1.6-66.5
		C155.4,148.2,152.2,60.9,211.1,67.2"/>
	<path class="st2" d="M295.2,339.7C295.1,339.8,295.1,339.9,295.2,339.7h-78.4c0.1,0.2,0.1,0.1,0,0l18.2,115.1
		c6.9,0.8,13.8,1.2,20.9,1.2l0,0c7.1,0,14-0.4,20.9-1.2L295.2,339.7z"/>
	<path class="st3" d="M256,327.6c-10.1,0-24.3-6.5-39.1-17.9v10v20c0.3,0.3,0.5,0.5,0.7,0.9c10.7,13.1,24.6,20,38.4,20V327.6
		L256,327.6z"/>
	<path class="st4" d="M256,360.6c13.9,0.1,27.8-6.5,38.4-20c0.3-0.3,0.5-0.6,0.8-0.9v-20v-10c-14.8,11.4-29.1,17.9-39.2,17.9V360.6z
		"/>
	<path class="st5" d="M256,327.6V204.8c-19.6,0-39.2,13-39.2,38.9v66C231.7,321.1,245.9,327.6,256,327.6L256,327.6z"/>
	<path class="st5" d="M256,204.8v122.8c10.1,0,24.3-6.5,39.2-17.9v-66C295.2,217.8,275.6,204.8,256,204.8z"/>
	<path class="st1" d="M314.1,185.2c17.1,19.4,25.6,36.3,19.1,57c-6.6,20.8-4,36.8,19.1,50.1c23,13.2,14.7,15.8,9.4,39.8
		c-3.3,15,9.2,28.6,26,28.6c3.2,0-17.3-7.5-14.6-22.7c4.3-24.5,26.7-38.1,5.2-61.3c-21.4-23.2-13.9-26.5-7.7-41
		c6.3-14.6-11.4-42.1-33.5-65.2C202.1,29.4,297,165.8,314.1,185.2"/>
	<path class="st1" d="M199.8,189.7c-18,18.8-27.2,35.2-21.4,56.3c5.8,21.1,2.4,37-21.2,49.2c-23.5,12.2-15.3,15.1-11,39.4
		c2.7,15.1-10.4,28.1-27.2,27.4c-3.2-0.2,17.6-6.8,15.6-22.1c-3.3-24.7-25-39.2-2.7-61.5s15.1-25.9,9.4-40.7
		c-5.7-14.8,13.2-41.5,36.2-63.7C318.4,38.7,217.8,171,199.8,189.7"/>
	<g>
		<path class="st3" d="M254.9,78L254.9,78c-68.1,0-100.2,60.5-97,113.2c-4-2.5-8.1-3.2-11.5-1.7c-7.9,3.4-9.6,17.3-3.7,31.1
			c5.9,13.8,17.1,22.1,25.1,18.7c1.1-0.5,2.1-1.2,2.9-2.1c21.5,43.4,63,72,84.2,72l0,0c0.3,0,0.8-0.1,1.1-0.1V78
			C255.7,78,255.3,78,254.9,78z"/>
		<path class="st4" d="M365.7,189.5c-4.1-1.8-9.1-0.3-13.8,3.4C355.8,140.1,324,78.7,256,78v231.1c21.8-0.9,63.1-30,84-73.6
			c1.1,1.6,2.6,2.9,4.3,3.7c7.9,3.4,19.2-5,25.1-18.7C375.2,206.8,373.6,192.9,365.7,189.5z"/>
	</g>
	<path class="st1" d="M214.7,103.1c6,29.4,37.2,45,66.7,49.4c29.4,4.3,55.4,4.3,39,24.3c-16.4,19.9-7,38.1,8.7,49.4
		c15.6,11.3,10.4,41.5-3.4,60.6c-13.8,19-17.3,35.5-0.9,53.7c16.4,18.1,7.8,18.8-6,41.4c-8.6,14-2.1,30.3,13.6,34
		c2.9,0.7-13.3-11.3-5.2-25.7c13.2-23.2,31.4-31.5,20.2-59.2c-11.3-27.7-4.3-28.6,6.9-41.5c11.3-13,15.6-45.8,1.7-72.7
		c-13.8-26.8,9.5-18.1,6.9-51.1C360.2,132.5,279.7,11.3,214.7,103.1"/>
	<path class="st1" d="M296.8,97.3c19.4,17.3,29.8,34.3,25.7,55.7c-4.1,21.4,0.5,37.1,24.9,47.4c24.3,10.4,16.4,13.9,14,38.4
		c-1.5,15.2,12.6,27.3,29.2,25.2c3.2-0.3-18.1-5.3-17.2-20.8c1.4-24.9,21.9-41-2.1-61.5c-24-20.6-26.2-27.3-21.8-42.5
		c4.6-15.2-7.5-37.5-31.8-58.1C288.3,56.2,277.5,80,296.8,97.3"/>
	<path class="st1" d="M211.4,97.3c-19.4,17.3-29.8,34.3-25.7,55.7c4.1,21.4-0.5,37.1-24.9,47.4c-24.4,10.4-16.4,13.9-14,38.4
		c1.5,15.2-12.6,27.3-29.2,25.2c-3.2-0.3,18.1-5.3,17.2-20.8c-1.4-24.9-21.9-41,2.1-61.5c24-20.6,26.2-27.3,21.8-42.5
		s7.5-37.5,31.8-58.1C219.9,56.2,230.8,80,211.4,97.3"/>
	<path class="st1" d="M266.7,78.2C246.4,90,176.3,158,168.5,181.9c-7.9,23.8,0.3,43.3,5.1,60.7C156.5,238.3,114.1,47.2,266.7,78.2"
		/>
	<g>
		<g>
			<path class="st6" d="M266.8,260.5c0,0,0.4,6.8-11.2,6.8c-3.4,0-11-1.5-11-6.6C251.4,262.4,259.4,262.7,266.8,260.5"/>
			<path class="st7" d="M260,257.7c2.6,0.3,7.1,2.7,6.8,2.8c-7.2,2.2-15.4,1.8-22.2,0.2c-0.1,0-0.2,0-0.2-0.1
				c2.3-0.9,5.3-2.9,7.6-2.8c1.2,0.1,2.7,1,3.8,1C257.3,258.9,258.3,257.5,260,257.7"/>
			<path class="st8" d="M240.7,259.6c8.7,3.6,20.9,4,29.4-0.2c0.2-0.1,0.1-0.4-0.2-0.3C259.7,262.4,251.1,261.8,240.7,259.6
				C240.7,259.5,240.7,259.6,240.7,259.6"/>
		</g>
		<path class="st9" d="M215.1,189.6c5.5,0,10.1,5.1,10.1,11.4c0,6.3-4.5,11.4-10.1,11.4s-10.1-5.1-10.1-11.4
			C205.1,194.8,209.6,189.6,215.1,189.6"/>
		<path class="st9" d="M296.9,189.6c5.5,0,10.1,5.1,10.1,11.4c0,6.3-4.5,11.4-10.1,11.4s-10.1-5.1-10.1-11.4
			C286.8,194.8,291.3,189.6,296.9,189.6"/>
	</g>
	<path class="st10" d="M216.8,339.7L216.8,339.7C216.7,339.5,216.8,339.6,216.8,339.7z"/>
	<path class="st10" d="M216.8,339.7L216.8,339.7C216.9,339.8,216.9,339.9,216.8,339.7z"/>
	<path class="st10" d="M295.2,339.7L295.2,339.7C295.2,339.6,295.3,339.5,295.2,339.7z"/>
	<path class="st10" d="M295.2,339.7L295.2,339.7C295.1,339.9,295.1,339.8,295.2,339.7z"/>
	<path class="st11" d="M295.2,339.7C295.1,339.9,295.1,339.8,295.2,339.7C295.2,339.6,295.3,339.5,295.2,339.7z"/>
	<path class="st11" d="M216.8,339.7C216.9,339.8,216.9,339.9,216.8,339.7C216.7,339.5,216.8,339.6,216.8,339.7z"/>
	<path class="st10" d="M235.1,454.8l-18.2-115.1c-0.1-0.1-0.1-0.2,0,0v-20c-23.3,32.5-72.9,38.6-112.5,47.5c-2,0.4-3.9,1-5.7,1.6
		C127.9,415.6,177.6,448.3,235.1,454.8z"/>
	<path class="st10" d="M295.2,319.7v20c0.1-0.2,0.1-0.1,0,0L277,454.8c57.5-6.5,107.2-39.2,136.4-86c-1.8-0.7-3.7-1.2-5.7-1.6
		C368.1,358.3,318.4,352.2,295.2,319.7z"/>
</g>
</svg>
